<?xml version="1.0" standalone="no"?>
<!DOCTYPE svg PUBLIC "-//W3C//DTD SVG 20010904//EN"
 "http://www.w3.org/TR/2001/REC-SVG-20010904/DTD/svg10.dtd">
<svg version="1.0" xmlns="http://www.w3.org/2000/svg"
 width="500.000000pt" height="500.000000pt" viewBox="0 0 500.000000 500.000000"
 preserveAspectRatio="xMidYMid meet">
<metadata>
Created by potrace 1.11, written by Peter Selinger 2001-2013
</metadata>
<g transform="translate(0.000000,500.000000) scale(0.100000,-0.100000)"
fill="#000000" stroke="none">
<path d="M3708 4001 c-20 -4 -43 -12 -50 -18 -7 -6 -23 -14 -36 -18 -23 -7
-116 -95 -139 -131 -78 -123 -124 -224 -151 -329 -6 -22 -16 -60 -23 -85 -58
-208 -58 -813 0 -1030 23 -84 32 -115 48 -155 8 -22 19 -49 23 -60 11 -31 39
-88 52 -110 53 -84 149 -185 177 -185 9 0 24 -9 33 -19 10 -12 36 -22 65 -26
26 -3 55 -7 63 -8 9 -1 16 -14 18 -32 4 -47 43 -193 69 -260 63 -161 116 -236
189 -271 118 -56 193 -21 272 126 78 145 82 155 82 228 0 66 -11 99 -23 69 -3
-7 -23 -19 -45 -25 -22 -7 -43 -19 -46 -27 -8 -22 -164 -22 -172 0 -4 8 -26
20 -50 26 -24 6 -44 15 -44 19 0 4 -12 21 -27 37 -48 53 -63 76 -63 100 0 16
6 23 19 23 11 0 23 9 26 20 4 11 15 20 26 20 11 0 30 11 43 25 13 14 28 25 33
25 18 0 104 120 143 198 39 80 80 188 98 257 30 118 36 146 45 215 14 101 14
637 0 725 -6 39 -19 99 -28 135 -9 36 -20 81 -25 100 -18 72 -105 260 -120
260 -6 0 -10 6 -10 14 0 18 -119 136 -137 136 -7 0 -25 7 -39 16 -28 19 -230
29 -296 15z m172 -191 c6 -11 14 -19 18 -19 41 6 99 -73 138 -188 37 -110 49
-197 74 -532 11 -154 5 -313 -20 -566 -21 -204 -32 -251 -88 -359 -27 -52 -44
-72 -68 -82 -17 -7 -34 -20 -37 -29 -7 -17 -112 -22 -122 -5 -4 6 -24 19 -46
30 -21 11 -39 27 -39 35 0 8 -4 15 -10 15 -11 0 -70 122 -70 145 0 9 -5 25
-11 36 -13 26 -27 100 -39 209 -5 47 -13 119 -19 160 -16 116 -13 495 4 645
18 147 43 287 58 325 20 51 42 95 55 108 6 7 12 17 12 22 0 12 55 41 63 34 3
-3 8 4 12 15 5 18 14 21 65 21 49 0 61 -3 70 -20z"/>
<path d="M607 3963 c-13 -12 -7 -64 10 -90 9 -14 31 -32 49 -39 29 -12 31 -17
37 -81 9 -89 9 -1568 0 -1657 -6 -65 -8 -69 -38 -82 -41 -17 -67 -56 -63 -97
l3 -32 140 -3 c177 -4 185 -2 185 43 0 19 -5 35 -10 35 -6 0 -15 11 -19 24 -6
15 -20 25 -40 29 l-31 7 0 671 c0 370 2 670 4 668 3 -3 10 -34 16 -69 7 -36
16 -90 22 -120 5 -30 13 -75 17 -100 5 -25 13 -65 19 -90 6 -25 15 -67 21 -95
5 -27 16 -81 24 -120 9 -38 20 -97 27 -130 6 -33 17 -89 25 -125 7 -36 18 -92
25 -125 6 -33 17 -89 25 -125 7 -36 18 -92 25 -125 6 -33 17 -88 25 -122 8
-34 15 -72 15 -85 0 -31 18 -48 50 -48 32 0 60 28 60 58 0 12 7 48 14 80 16
59 51 230 67 317 16 87 26 138 38 188 23 98 31 138 31 159 0 12 6 44 14 72 8
28 19 76 25 106 5 30 15 80 22 110 13 63 24 121 38 202 5 31 14 71 20 90 5 18
17 71 24 118 14 78 15 26 16 -633 l1 -717 -22 -9 c-13 -5 -36 -22 -51 -39 -22
-23 -28 -37 -25 -63 l3 -34 205 -3 c113 -1 215 0 228 3 17 4 22 12 22 38 0 39
-27 68 -83 92 l-37 15 0 884 c0 487 3 891 6 900 3 9 14 16 24 16 11 0 22 5 25
10 4 6 10 8 14 6 14 -9 51 52 51 83 0 41 -10 42 -210 39 l-165 -3 -17 -70 c-9
-38 -22 -97 -28 -130 -7 -33 -18 -91 -27 -130 -8 -38 -19 -92 -24 -120 -6 -27
-15 -70 -21 -95 -10 -43 -18 -83 -33 -175 -3 -22 -12 -65 -20 -95 -7 -30 -19
-82 -25 -115 -6 -33 -17 -89 -25 -125 -9 -36 -15 -75 -15 -87 0 -12 -4 -32 -9
-45 -5 -13 -14 -59 -21 -103 -16 -114 -23 -130 -31 -75 -13 85 -28 165 -48
265 -39 186 -51 250 -62 305 -5 30 -16 87 -24 125 -8 39 -19 97 -25 130 -6 33
-16 80 -22 105 -11 44 -16 75 -36 195 -6 33 -15 73 -21 88 -6 16 -11 42 -11
58 0 16 -7 45 -14 64 l-15 35 -169 0 c-93 0 -172 -3 -175 -7z"/>
<path d="M2030 3950 c-6 -12 -8 -29 -5 -40 8 -25 75 -80 97 -80 17 0 18 -45
18 -905 l0 -905 -21 0 c-25 0 -99 -70 -99 -93 0 -9 7 -23 16 -31 13 -14 48
-16 228 -16 151 0 215 3 224 12 29 29 -3 90 -67 122 l-31 17 0 424 0 425 205
0 205 0 0 -426 0 -425 -32 -14 c-18 -8 -44 -30 -57 -50 -20 -30 -22 -39 -13
-60 l12 -25 222 2 223 3 3 33 c4 38 -32 83 -80 101 l-28 11 0 895 0 895 33 14
c51 21 79 58 75 97 l-3 34 -219 3 c-228 3 -246 0 -246 -40 0 -27 46 -80 81
-95 l29 -12 0 -376 0 -375 -205 0 -205 0 0 375 0 374 32 17 c58 30 92 90 68
119 -10 12 -50 15 -231 15 -209 0 -219 -1 -229 -20z"/>
<path d="M697 1689 c-32 -37 -50 -76 -66 -146 -11 -44 -10 -64 4 -127 9 -41
23 -80 31 -87 8 -6 14 -18 14 -25 0 -8 11 -19 25 -24 14 -5 25 -16 25 -24 0
-10 15 -17 45 -21 37 -6 48 -13 66 -43 l21 -36 -21 -43 c-18 -36 -25 -43 -51
-43 -32 0 -52 27 -74 104 -10 36 -16 41 -45 44 -20 2 -37 -2 -42 -10 -13 -20
-10 -107 5 -163 17 -66 32 -94 68 -127 40 -38 126 -40 178 -4 89 60 109 311
33 421 -21 32 -94 85 -116 85 -11 0 -31 12 -45 27 -20 22 -23 31 -16 52 8 21
16 26 44 26 30 0 36 -5 57 -47 20 -40 28 -48 52 -48 44 0 55 21 47 90 -8 69
-35 135 -70 173 -22 23 -33 27 -83 27 -53 0 -61 -3 -86 -31z"/>
<path d="M1099 1688 c-33 -35 -67 -103 -93 -182 -24 -73 -22 -340 2 -418 10
-32 21 -60 25 -64 4 -4 7 -15 7 -24 0 -10 17 -37 38 -61 37 -41 42 -43 103
-47 56 -3 68 0 97 21 38 28 67 77 90 152 24 74 23 400 -1 468 -27 76 -56 126
-90 157 -28 25 -40 29 -90 30 -53 0 -61 -3 -88 -32z m142 -191 c88 -111 48
-427 -55 -427 -56 0 -96 95 -96 227 0 93 16 169 43 195 9 10 17 23 17 28 0 6
15 10 33 10 24 0 38 -8 58 -33z"/>
<path d="M1440 1710 c-13 -8 -15 -65 -17 -399 -3 -423 -3 -421 52 -421 55 0
55 -1 55 176 l0 164 73 0 c43 0 78 5 85 12 16 16 16 150 0 166 -7 7 -42 12
-85 12 l-73 0 0 55 0 55 79 0 c114 0 111 -2 111 95 0 66 -3 84 -16 89 -25 10
-248 7 -264 -4z"/>
<path d="M1746 1704 c-8 -20 -8 -138 0 -158 4 -12 20 -16 55 -16 l49 0 0 -310
c0 -296 1 -310 19 -320 28 -14 66 -12 80 4 9 10 11 100 11 318 l-2 303 49 6
c26 3 56 9 66 13 15 7 17 2 17 -50 1 -33 5 -79 11 -104 9 -43 15 -87 38 -316
6 -56 16 -119 23 -140 11 -33 18 -39 45 -42 54 -5 73 12 73 66 0 26 5 63 10
82 6 19 15 85 21 145 13 130 25 224 28 210 1 -5 6 -48 12 -95 9 -90 25 -224
37 -328 5 -38 14 -67 22 -72 22 -14 78 -12 87 3 13 20 32 118 33 172 0 28 5
68 11 90 10 39 18 110 38 320 5 55 14 120 19 144 15 65 1 91 -49 91 -41 0 -52
-23 -61 -126 -4 -52 -12 -137 -16 -189 -5 -52 -12 -98 -15 -101 -13 -13 -16 8
-45 312 -9 87 -21 104 -76 104 -51 0 -66 -13 -66 -60 0 -19 -7 -62 -15 -95 -8
-33 -15 -85 -15 -115 -1 -30 -7 -86 -14 -125 l-14 -70 -1 75 c0 41 -6 91 -12
110 -5 19 -14 83 -18 142 -4 58 -13 113 -19 121 -10 12 -51 15 -211 16 -174 1
-199 0 -205 -15z"/>
<path d="M2736 1705 c-9 -9 -16 -30 -16 -47 0 -27 -10 -79 -40 -216 -6 -23
-10 -52 -10 -65 0 -12 -7 -56 -16 -97 -8 -41 -20 -97 -25 -125 -5 -27 -15 -82
-24 -122 -22 -105 -20 -131 9 -139 59 -15 85 19 95 121 l6 60 71 3 c79 3 83 0
84 -78 1 -19 9 -51 18 -70 13 -27 24 -36 48 -38 37 -4 69 22 59 47 -7 16 -18
77 -34 188 -5 34 -12 67 -16 73 -4 6 -11 39 -16 73 -5 34 -13 85 -18 112 -24
135 -33 183 -41 215 -5 19 -12 53 -17 75 -8 39 -9 40 -54 43 -33 2 -51 -2 -63
-13z m65 -288 c5 -28 11 -73 15 -99 l7 -48 -31 0 c-17 0 -34 4 -37 10 -3 5 1
36 10 69 8 32 15 76 15 97 0 51 12 35 21 -29z"/>
<path d="M3025 1707 c-3 -6 -4 -192 -3 -412 l3 -400 33 -3 c59 -6 62 3 62 179
0 148 1 159 18 159 20 0 38 -34 67 -130 10 -30 21 -63 26 -72 5 -10 9 -24 9
-32 0 -8 9 -35 20 -60 19 -45 20 -46 64 -46 69 0 75 20 38 128 -17 48 -38 113
-47 144 -9 32 -21 60 -26 64 -15 9 -10 51 6 58 9 3 27 29 40 58 20 43 25 69
25 138 0 92 -17 151 -59 208 l-25 32 -123 0 c-90 0 -125 -3 -128 -13z m227
-202 c8 -18 9 -35 2 -53 -9 -25 -14 -27 -72 -30 -38 -2 -62 1 -63 8 0 5 -1 26
-1 45 0 19 1 40 1 45 1 6 28 10 61 10 55 0 61 -2 72 -25z"/>
<path d="M3425 1707 c-3 -6 -4 -192 -3 -412 l3 -400 144 -3 c97 -2 148 1 157
9 9 8 14 33 14 74 0 98 3 95 -116 95 l-104 0 0 80 0 79 93 3 92 3 0 90 0 90
-92 3 c-51 1 -93 7 -94 12 0 6 -1 26 -1 45 0 19 1 40 1 45 1 6 38 10 90 10 49
0 96 3 105 6 23 9 23 169 0 178 -9 3 -76 6 -150 6 -99 0 -136 -3 -139 -13z"/>
</g>
</svg>
